<svg
    fill="rgb(140, 140, 140)"
    version="1.1"
    xmlns="http://www.w3.org/2000/svg"
    xmlns:xlink="http://www.w3.org/1999/xlink"
    x="0px" y="0px"
    viewBox="0 0 1000 1000"
    enable-background="new 0 0 1000 1000"
    xml:space="preserve"
>
    <g>
        <path d="M623.8,353.3c17.2,15.7,31.4,28.9,42.6,39.8c11.2,10.8,20,19.8,26.3,26.9s10.6,13.1,12.9,17.9s3.4,9.5,3.4,14v388.6c0,21.7-3.4,41.4-10.1,59.4s-16.4,33.6-29.1,47s-27.8,23.9-45.4,31.4s-36.8,11.2-57.7,11.2H142.2c-17.2,0-33.6-2.6-49.3-7.8c-15.7-5.2-29.7-13.4-42-24.6c-12.3-11.2-22.2-25.6-29.7-43.1S10,875.6,10,851.7V427.2c0-18.7,3.9-36.4,11.8-53.2c7.8-16.8,18.1-31.5,30.8-44.2c12.7-12.7,26.9-22.8,42.6-30.2c15.7-7.5,31.4-11.2,47-11.2H523c5.2,0,10.5,0.7,15.7,2.2c5.2,1.5,11.6,4.5,19,9c7.5,4.5,16.4,11,26.9,19.6C595,327.7,608.1,339.1,623.8,353.3L623.8,353.3z M478.2,776.6c8.2,0,15.3-3.9,21.3-11.8s9-15.9,9-24.1c0-8.2-3-16.1-9-23.5c-6-7.5-13.1-11.2-21.3-11.2H178c-8.2,0-15.3,3.7-21.3,11.2c-6,7.5-9,15.3-9,23.5c0,8.2,3,16.2,9,24.1s13.1,11.8,21.3,11.8H478.2z M478.2,570.6c8.2,0,15.3-5,21.3-15.1c6-10.1,9-19.6,9-28.6c0-8.2-3-16.2-9-24.1c-6-7.8-13.1-11.8-21.3-11.8H244.1c-8.2,0-15.1,3.9-20.7,11.8c-5.6,7.8-8.4,15.9-8.4,24.1c0,9,2.8,18.5,8.4,28.6c5.6,10.1,12.5,15.1,20.7,15.1H478.2L478.2,570.6z M829.8,10.6c55.3,0,95.8,14.4,121.5,43.1c25.8,28.7,38.6,66.6,38.6,113.7v663c0,56-12.9,95.2-38.6,117.6c-25.8,22.4-65.9,33.6-120.4,33.6h-52.6V831.5h11.2c19.4,0,34.5-3.9,45.4-11.8s16.2-23.3,16.2-46.5V240.2c0-14.9-2.8-28.2-8.4-39.8c-5.6-11.6-13.1-21.5-22.4-29.7c-9.3-8.2-19.6-14.6-30.8-19c-11.2-4.5-22.4-6.7-33.6-6.7H630.5v25.8c0,12.7-4.3,23.3-12.9,31.9c-8.6,8.6-19.2,12.9-31.9,12.9H432.2c-12.7,0-23.1-4.3-31.4-12.9c-8.2-8.6-12.3-19.2-12.3-31.9V145H258.6c-16.4,0-30.6,5.8-42.6,17.4c-11.9,11.6-17.9,25.9-17.9,43.1v17.9H78.3v-58.2c0-49.3,14-87.4,42-114.2c28-26.9,66.3-40.3,114.8-40.3H829.8L829.8,10.6z"/>
    </g>
</svg>